<svg width="138" height="36" viewBox="0 0 138 36" fill="none" xmlns="http://www.w3.org/2000/svg">
<path d="M9 26V27H11V26H9ZM26 10H27V9H26V10ZM25 26V27H27V26H25ZM11 26V25H9V26H11ZM11 23V22H9V23H11ZM11 22C11 21.7197 11.0105 21.442 11.031 21.1674L9.03656 21.0183C9.01232 21.3425 9 21.6699 9 22H11ZM11.2797 19.5232C11.4052 18.9778 11.5712 18.4478 11.7745 17.9368L9.91612 17.1976C9.67558 17.8024 9.47909 18.4295 9.33064 19.0749L11.2797 19.5232ZM12.5045 16.4432C12.6451 16.2035 12.7945 15.9696 12.9524 15.7419L11.3086 14.6026C11.1221 14.8716 10.9455 15.148 10.7794 15.4313L12.5045 16.4432ZM15.584 13.0639C15.8155 12.8973 16.0536 12.7396 16.298 12.5912L15.2597 10.8818C14.9709 11.0573 14.6895 11.2436 14.416 11.4403L15.584 13.0639ZM17.8248 11.8198C18.3484 11.6048 18.8922 11.429 19.4527 11.2962L18.9914 9.35013C18.3282 9.50731 17.6847 9.71526 17.0652 9.96964L17.8248 11.8198ZM21.1432 11.0328C21.4258 11.0111 21.7115 11 22 11V9C21.6603 9 21.3234 9.01305 20.9898 9.03872L21.1432 11.0328ZM22 11H23V9H22V11ZM25 11H26V9H25V11ZM25 10V11H27V10H25ZM25 13V15H27V13H25ZM25 17V19H27V17H25ZM25 21V23H27V21H25ZM25 25V26H27V25H25Z" fill="currentColor"/>
<path d="M5 21L11 15M21 5L15 11" stroke="currentColor" stroke-width="2"/>
<circle cx="13" cy="13" r="2.25" stroke="currentColor" stroke-width="1.5"/>
<path d="M41.916 27V9.476H44.36V27H41.916ZM35.78 11.192V8.956H50.47V11.192H35.78ZM54.7903 27.26C53.6636 27.26 52.6409 26.9827 51.7223 26.428C50.8036 25.856 50.0756 25.0847 49.5383 24.114C49.0183 23.1433 48.7583 22.0513 48.7583 20.838C48.7583 19.6247 49.0183 18.5327 49.5383 17.562C50.0756 16.5913 50.7949 15.82 51.6963 15.248C52.6149 14.676 53.6463 14.39 54.7903 14.39C55.7263 14.39 56.5583 14.5893 57.2863 14.988C58.0316 15.3693 58.6296 15.9067 59.0803 16.6C59.5309 17.276 59.7823 18.0647 59.8343 18.966V22.684C59.7823 23.568 59.5309 24.3567 59.0803 25.05C58.6469 25.7433 58.0576 26.2893 57.3123 26.688C56.5843 27.0693 55.7436 27.26 54.7903 27.26ZM55.1803 25.05C56.3416 25.05 57.2776 24.66 57.9883 23.88C58.6989 23.0827 59.0543 22.0687 59.0543 20.838C59.0543 19.9887 58.8896 19.252 58.5603 18.628C58.2483 17.9867 57.7976 17.4927 57.2083 17.146C56.6189 16.782 55.9343 16.6 55.1543 16.6C54.3743 16.6 53.6809 16.782 53.0743 17.146C52.4849 17.51 52.0169 18.0127 51.6703 18.654C51.3409 19.278 51.1763 19.9973 51.1763 20.812C51.1763 21.644 51.3409 22.3807 51.6703 23.022C52.0169 23.646 52.4936 24.14 53.1003 24.504C53.7069 24.868 54.4003 25.05 55.1803 25.05ZM58.8983 27V23.672L59.3403 20.656L58.8983 17.666V14.65H61.2643V27H58.8983ZM73.4071 27V19.798C73.4071 18.862 73.1124 18.0907 72.5231 17.484C71.9337 16.8773 71.1711 16.574 70.2351 16.574C69.6111 16.574 69.0564 16.7127 68.5711 16.99C68.0857 17.2673 67.7044 17.6487 67.4271 18.134C67.1497 18.6193 67.0111 19.174 67.0111 19.798L66.0491 19.252C66.0491 18.316 66.2571 17.484 66.6731 16.756C67.0891 16.028 67.6697 15.456 68.4151 15.04C69.1604 14.6067 70.0011 14.39 70.9371 14.39C71.8731 14.39 72.6964 14.624 73.4071 15.092C74.1351 15.56 74.7071 16.1753 75.1231 16.938C75.5391 17.6833 75.7471 18.4807 75.7471 19.33V27H73.4071ZM64.6711 27V14.65H67.0111V27H64.6711ZM84.0372 32.434C82.7719 32.434 81.6452 32.2 80.6572 31.732C79.6866 31.264 78.9066 30.6053 78.3172 29.756L79.8252 28.222C80.3279 28.8633 80.9259 29.3487 81.6192 29.678C82.3126 30.0247 83.1359 30.198 84.0892 30.198C85.3546 30.198 86.3512 29.86 87.0792 29.184C87.8246 28.5253 88.1972 27.6327 88.1972 26.506V23.438L88.6132 20.656L88.1972 17.9V14.65H90.5372V26.506C90.5372 27.6847 90.2599 28.716 89.7052 29.6C89.1679 30.484 88.4052 31.1773 87.4172 31.68C86.4466 32.1827 85.3199 32.434 84.0372 32.434ZM84.0372 26.792C82.9106 26.792 81.8966 26.5233 80.9952 25.986C80.1112 25.4487 79.4092 24.712 78.8892 23.776C78.3692 22.8227 78.1092 21.7567 78.1092 20.578C78.1092 19.3993 78.3692 18.3507 78.8892 17.432C79.4092 16.496 80.1112 15.7593 80.9952 15.222C81.8966 14.6673 82.9106 14.39 84.0372 14.39C85.0079 14.39 85.8659 14.5807 86.6112 14.962C87.3566 15.3433 87.9459 15.8807 88.3792 16.574C88.8299 17.25 89.0726 18.0473 89.1072 18.966V22.242C89.0552 23.1433 88.8039 23.9407 88.3532 24.634C87.9199 25.31 87.3306 25.8387 86.5852 26.22C85.8399 26.6013 84.9906 26.792 84.0372 26.792ZM84.5052 24.582C85.2679 24.582 85.9352 24.4173 86.5072 24.088C87.0966 23.7587 87.5472 23.2993 87.8592 22.71C88.1712 22.1033 88.3272 21.4013 88.3272 20.604C88.3272 19.8067 88.1626 19.1133 87.8332 18.524C87.5212 17.9173 87.0792 17.4493 86.5072 17.12C85.9352 16.7733 85.2592 16.6 84.4792 16.6C83.6992 16.6 83.0146 16.7733 82.4252 17.12C81.8359 17.4493 81.3679 17.9173 81.0212 18.524C80.6919 19.1133 80.5272 19.798 80.5272 20.578C80.5272 21.358 80.6919 22.0513 81.0212 22.658C81.3679 23.2647 81.8359 23.7413 82.4252 24.088C83.0319 24.4173 83.7252 24.582 84.5052 24.582ZM99.6919 27.26C98.4612 27.26 97.3519 26.9827 96.3639 26.428C95.3759 25.856 94.5959 25.0847 94.0239 24.114C93.4519 23.1433 93.1659 22.0427 93.1659 20.812C93.1659 19.5987 93.4432 18.5067 93.9979 17.536C94.5699 16.5653 95.3325 15.8027 96.2859 15.248C97.2565 14.676 98.3399 14.39 99.5359 14.39C100.68 14.39 101.685 14.65 102.552 15.17C103.436 15.69 104.121 16.4093 104.606 17.328C105.109 18.2467 105.36 19.2867 105.36 20.448C105.36 20.6213 105.351 20.812 105.334 21.02C105.317 21.2107 105.282 21.436 105.23 21.696H94.8039V19.746H103.982L103.124 20.5C103.124 19.668 102.977 18.966 102.682 18.394C102.387 17.8047 101.971 17.354 101.434 17.042C100.897 16.7127 100.247 16.548 99.4839 16.548C98.6865 16.548 97.9845 16.7213 97.3779 17.068C96.7712 17.4147 96.3032 17.9 95.9739 18.524C95.6445 19.148 95.4799 19.8847 95.4799 20.734C95.4799 21.6007 95.6532 22.3633 95.9999 23.022C96.3465 23.6633 96.8405 24.166 97.4819 24.53C98.1232 24.8767 98.8599 25.05 99.6919 25.05C100.385 25.05 101.018 24.9287 101.59 24.686C102.179 24.4433 102.682 24.0793 103.098 23.594L104.606 25.128C104.017 25.8213 103.289 26.35 102.422 26.714C101.573 27.078 100.663 27.26 99.6919 27.26ZM116.647 27V19.798C116.647 18.862 116.353 18.0907 115.763 17.484C115.174 16.8773 114.411 16.574 113.475 16.574C112.851 16.574 112.297 16.7127 111.811 16.99C111.326 17.2673 110.945 17.6487 110.667 18.134C110.39 18.6193 110.251 19.174 110.251 19.798L109.289 19.252C109.289 18.316 109.497 17.484 109.913 16.756C110.329 16.028 110.91 15.456 111.655 15.04C112.401 14.6067 113.241 14.39 114.177 14.39C115.113 14.39 115.937 14.624 116.647 15.092C117.375 15.56 117.947 16.1753 118.363 16.938C118.779 17.6833 118.987 18.4807 118.987 19.33V27H116.647ZM107.911 27V14.65H110.251V27H107.911ZM123.901 27V9.476H126.241V27H123.901ZM120.859 16.782V14.65H129.283V16.782H120.859Z" fill="currentColor"/>
</svg>
